<svg width="5" height="10" viewBox="0 0 5 10" fill="none" xmlns="http://www.w3.org/2000/svg">
<path d="M4.87781 5.32157L0.711611 9.8668C0.672902 9.90903 0.626949 9.94253 0.576374 9.96538C0.525799 9.98824 0.471593 10 0.416852 10C0.36211 10 0.307904 9.98824 0.257329 9.96538C0.206755 9.94253 0.160801 9.90903 0.122093 9.8668C0.0833846 9.82457 0.0526795 9.77444 0.0317308 9.71926C0.010782 9.66408 0 9.60495 0 9.54522C0 9.4855 0.010782 9.42636 0.0317308 9.37119C0.0526795 9.31601 0.0833846 9.26588 0.122093 9.22365L3.99406 5L0.122093 0.77635C0.043918 0.691063 -8.23706e-10 0.575389 0 0.454775C8.23707e-10 0.334161 0.043918 0.218487 0.122093 0.133201C0.200268 0.0479136 0.306296 8.98644e-10 0.416852 0C0.527408 -8.98644e-10 0.633436 0.0479136 0.711611 0.133201L4.87781 4.67842C4.91655 4.72064 4.94728 4.77077 4.96824 4.82594C4.98921 4.88112 5 4.94027 5 5C5 5.05973 4.98921 5.11888 4.96824 5.17405C4.94728 5.22923 4.91655 5.27936 4.87781 5.32157Z" fill="black" fill-opacity="0.6"/>
</svg>
