<svg width="25" height="21" viewBox="0 0 25 21" fill="none" xmlns="http://www.w3.org/2000/svg">
<path d="M24.2075 11.2081L15.2075 20.2081C15.0199 20.3957 14.7654 20.5011 14.5 20.5011C14.2346 20.5011 13.9801 20.3957 13.7925 20.2081C13.6049 20.0204 13.4994 19.7659 13.4994 19.5006C13.4994 19.2352 13.6049 18.9807 13.7925 18.7931L21.0863 11.5006H1.5C1.23478 11.5006 0.98043 11.3952 0.792893 11.2077C0.605357 11.0201 0.5 10.7658 0.5 10.5006C0.5 10.2353 0.605357 9.98099 0.792893 9.79345C0.98043 9.60591 1.23478 9.50056 1.5 9.50056H21.0863L13.7925 2.20806C13.6049 2.02042 13.4994 1.76592 13.4994 1.50056C13.4994 1.23519 13.6049 0.980697 13.7925 0.793056C13.9801 0.605415 14.2346 0.5 14.5 0.5C14.7654 0.5 15.0199 0.605415 15.2075 0.793056L24.2075 9.79306C24.3005 9.88593 24.3742 9.99622 24.4246 10.1176C24.4749 10.239 24.5008 10.3691 24.5008 10.5006C24.5008 10.632 24.4749 10.7621 24.4246 10.8835C24.3742 11.0049 24.3005 11.1152 24.2075 11.2081Z" fill="#F9F9F9"/>
</svg>
