<svg width="14" height="15" viewBox="0 0 14 15" fill="none" xmlns="http://www.w3.org/2000/svg">
<path d="M14 7.5C14 11.366 10.866 14.5 7 14.5C3.13401 14.5 0 11.366 0 7.5C0 3.63401 3.13401 0.5 7 0.5C10.866 0.5 14 3.63401 14 7.5Z" fill="#EF6C00"/>
<path d="M6.6637 2.71957C6.74752 2.46161 7.11248 2.46161 7.1963 2.71957L8.1087 5.52766C8.14618 5.64303 8.25369 5.72114 8.37499 5.72114H11.3276C11.5988 5.72114 11.7116 6.06823 11.4922 6.22766L9.10347 7.96315C9.00533 8.03445 8.96427 8.16084 9.00175 8.2762L9.91416 11.0843C9.99798 11.3423 9.70272 11.5568 9.48328 11.3973L7.09458 9.66185C6.99644 9.59055 6.86356 9.59055 6.76542 9.66185L4.37672 11.3973C4.15728 11.5568 3.86202 11.3423 3.94584 11.0843L4.85825 8.2762C4.89573 8.16084 4.85467 8.03445 4.75653 7.96315L2.36783 6.22766C2.14839 6.06823 2.26117 5.72114 2.53241 5.72114H5.48501C5.60631 5.72114 5.71382 5.64303 5.7513 5.52766L6.6637 2.71957Z" fill="white"/>
</svg>
